<svg xmlns="http://www.w3.org/2000/svg" viewBox="0 0 315.99 178.16"><defs><style>.cls-1,.cls-7{fill:none}.cls-2{clip-path:url(#clip-path)}.cls-3,.cls-6{fill:#fff}.cls-4{clip-path:url(#clip-path-2)}.cls-5{fill:#063f7b}.cls-6{fill-rule:evenodd}.cls-7{stroke:#fff;stroke-miterlimit:10;stroke-width:.39px}</style><clipPath id="clip-path" transform="translate(-.64)"><path class="cls-1" d="M0 0h316.63v178.15H0z"/></clipPath><clipPath id="clip-path-2" transform="translate(-.64)"><path class="cls-1" d="M0 0h308.13v178.15H0z"/></clipPath></defs><title>header-logo</title><g id="Layer_2" data-name="Layer 2"><g id="Layer_1-2" data-name="Layer 1"><g class="cls-2"><path class="cls-3" d="M313.76 33.58h-3.06c.1-1.49.69-2.23 1.53-2.23s1.43.76 1.53 2.23m2.86.88c0-2.82-1.33-5-4.31-5-2.64 0-4.59 1.93-4.59 5.11 0 3.48 2.09 5 5 5a7.06 7.06 0 0 0 3.88-1.09l-.3-2.11a6.5 6.5 0 0 1-3.2 1 2.14 2.14 0 0 1-2.38-2.13h5.84a3.92 3.92 0 0 0 .06-.77m-10.43 4.89v-6.93c0-1.89-1-3-2.76-3a4.35 4.35 0 0 0-3 1.53l-.22-1.33h-2.64v9.74h3v-6.4a2.44 2.44 0 0 1 1.65-.87c.72 0 1 .48 1 1.17v6.1zm-10.73 0v-9.75h-3V36a2.44 2.44 0 0 1-1.65.87c-.71 0-1-.5-1-1.19v-6.1h-3v6.94c0 1.89 1 3 2.76 3a4.35 4.35 0 0 0 3-1.53l.22 1.33zm-10.77-4.17v-9.55h-3.42v9c0 1.53-.71 2-1.91 2a5.41 5.41 0 0 1-1.61-.22l.46 2.86a8.44 8.44 0 0 0 1.89.18c2.62 0 4.59-1.19 4.59-4.31m-12-2.44v-4c0-1.1-.56-1.76-1.61-1.76a2.4 2.4 0 0 0-1.69.82v-3.4l-1.75.28v8.09h1.75V29a1.42 1.42 0 0 1 1-.51c.42 0 .58.28.58.68v3.56zm-5.87 0l-.22-1.44a1.62 1.62 0 0 1-.42.06c-.47 0-.69-.21-.69-.67v-2.18h1.3l-.22-1.43h-1.08v-2l-1.74.27v1.69H263v1.43h.75v2.44c0 1.45.85 1.89 2.06 1.89a3.34 3.34 0 0 0 1-.12M255 33.94a3.91 3.91 0 0 1 2.21-.77 1.69 1.69 0 0 1 1.89 1.93 1.87 1.87 0 0 1-1.91 2.11c-1.23 0-2.17-1-2.19-3.26m.12-2.15c.66-1.91 2.54-3 5.07-3.54l-.42-2.62c-4.43.87-7.75 3.48-7.75 8.29 0 3.72 2.11 5.68 5.17 5.68a4.67 4.67 0 0 0 5-4.71c0-2.76-1.73-4.07-3.82-4.07a5.66 5.66 0 0 0-3.24 1M250 39.35V25.89h-3l-3.44 1.59.36 2.58 2.7-1.05v10.34zm-11.7-7.15h-16.43V35h16.41zm-21.54-2.58h-2.9l-1.79 6-1.89-6.14-3.22.38 3.54 9.52-.12.3a1.63 1.63 0 0 1-1.59.93 3.59 3.59 0 0 1-1.19-.16l.38 2.4a4.48 4.48 0 0 0 1.13.12c2.13 0 3.32-.87 4.19-3.42zM203 36.66a2.52 2.52 0 0 1-1.67.74.87.87 0 0 1-.93-1c0-.86.56-1.53 2.6-1.85zm3 2.68v-6.51c0-2.48-1.33-3.38-4-3.38a10.08 10.08 0 0 0-4 .76l.36 2.27a7.65 7.65 0 0 1 3.14-.74c1 0 1.47.38 1.47 1.23v.18c-3.82.34-5.56 1.41-5.56 3.7a2.47 2.47 0 0 0 2.64 2.7 4 4 0 0 0 3.06-1.41l.2 1.21zm-10 0l-1-13.71h-4.27l-2.68 9.44-2.66-9.44H181l-1 13.71h3l.6-9.12 2.6 9.14h3.18l2.6-9.14.6 9.12zm-21.57-6.62v-4c0-1.1-.56-1.76-1.61-1.76a2.4 2.4 0 0 0-1.69.82v-3.41l-1.75.28v8.09h1.75V29a1.42 1.42 0 0 1 1-.51c.42 0 .58.28.58.68v3.56zm-5.87 0l-.22-1.44a1.61 1.61 0 0 1-.42.06c-.48 0-.7-.21-.7-.67v-2.19h1.3l-.22-1.43h-1.08v-2l-1.74.27v1.69h-.75v1.43h.75v2.44c0 1.45.85 1.89 2.06 1.89a3.34 3.34 0 0 0 1-.12m-11.75 1.25a3.91 3.91 0 0 1 2.21-.77 1.69 1.69 0 0 1 1.89 1.93A1.87 1.87 0 0 1 159 37.2c-1.23 0-2.17-1-2.19-3.26m.19-2.14c.66-1.91 2.54-3 5.07-3.54l-.42-2.62c-4.43.87-7.75 3.48-7.75 8.29 0 3.72 2.11 5.68 5.17 5.68a4.67 4.67 0 0 0 5-4.71c0-2.76-1.73-4.07-3.82-4.07a5.66 5.66 0 0 0-3.24 1m-5.17 7.55V25.89h-3l-3.44 1.59.36 2.58 2.7-1.05v10.34z" transform="translate(-.64)"/></g><g class="cls-4"><path class="cls-5" d="M307.17 112.09a13.48 13.48 0 0 0-2.25-5.11c-.21-.35-.43-.7-.67-1s-.43-.7-.67-1-.43-.7-.67-1-.43-.7-.67-1-.43-.69-.67-1-.43-.7-.67-1-.43-.7-.67-1-.43-.7-.67-1-.43-.7-.67-1-.43-.69-.67-1-.43-.7-.67-1-.43-.7-.67-1-.43-.69-.66-1-.43-.7-.67-1-.43-.7-.67-1-.43-.7-.67-1-.43-.7-.67-1-.43-.7-.67-1-.43-.7-.67-1-.43-.7-.67-1a14.31 14.31 0 0 0-6.12-5.58 13.37 13.37 0 0 0-5.87-1.39 13.06 13.06 0 0 0-3.22.41 11 11 0 0 0-5.57-2.62 9.61 9.61 0 0 0-1-1.69 9.73 9.73 0 0 0-.66-1 9.86 9.86 0 0 0-.67-1 9.83 9.83 0 0 0-.67-1 9.69 9.69 0 0 0-.67-1 9.55 9.55 0 0 0-.67-1 9.69 9.69 0 0 0-.67-1 9.78 9.78 0 0 0-.61-.95 9.66 9.66 0 0 0-.74-1.15 9.81 9.81 0 0 0-.65-1 10 10 0 0 0-.67-1 9.61 9.61 0 0 0-.66-1 9.51 9.51 0 0 0-.62-1 9.49 9.49 0 0 0-.74-1.14 9.68 9.68 0 0 0-.65-1 9.31 9.31 0 0 0-.67-1 9.42 9.42 0 0 0-.67-1 9.56 9.56 0 0 0-.67-1 9.38 9.38 0 0 0-.66-1 9.58 9.58 0 0 0-.67-1 9.63 9.63 0 0 0-.67-1 9.56 9.56 0 0 0-1.29-1.79 9 9 0 0 0-6.67-2.89 10.74 10.74 0 0 0-8.18 4.07c-1.33 1-7.76 3.71-21.41 3.72-2.13 0-4.38-.07-6.69-.19-5.48-.31-10.86-1.12-16.07-1.91l-.88-.13a10.58 10.58 0 0 0-8.93-4.42 10.38 10.38 0 0 0-6.46 2.1c-.27.21-.53.43-.77.67-2.75-.19-5-.27-7-.27a45.72 45.72 0 0 0-15.24 2.35 23.65 23.65 0 0 0-7.3 3.94 18.33 18.33 0 0 0-4.42-4.62 19.6 19.6 0 0 0-3.1-6.77c-.24-.38-.46-.73-.67-1s-.46-.72-.66-1-.47-.73-.67-1-.47-.73-.67-1-.46-.72-.66-1-.47-.73-.68-1-.46-.72-.66-1-.47-.73-.67-1l-.27-.43c-.27-.64-.51-1.31-.73-1.92s-.35-1-.5-1.35a33.33 33.33 0 0 0-2.37-4.56 20.05 20.05 0 0 1-.94-1.78c-.18-.55-.44-1.36-.59-1.91a10.14 10.14 0 0 0-1.59-3.27 9.7 9.7 0 0 0-.67-1 9.61 9.61 0 0 0-.66-1 9.6 9.6 0 0 0-.67-1 9.57 9.57 0 0 0-.67-1 9.66 9.66 0 0 0-.67-1 9.67 9.67 0 0 0-.67-1 9.65 9.65 0 0 0-.66-1 9.58 9.58 0 0 0-.67-1 9.79 9.79 0 0 0-.66-1 9.61 9.61 0 0 0-.67-1 9.61 9.61 0 0 0-.66-1 9.7 9.7 0 0 0-.67-1 9.93 9.93 0 0 0-.66-1 9.84 9.84 0 0 0-.67-1 9.44 9.44 0 0 0-.67-1 9.46 9.46 0 0 0-.67-1 9.7 9.7 0 0 0-.67-1 9.59 9.59 0 0 0-.67-1 9.73 9.73 0 0 0-.67-1 9.81 9.81 0 0 0-.67-1A8.81 8.81 0 0 0 108.53 0a9 9 0 0 0-1 .06c-2.38.27-6.4 1.61-7.9 7.44a9.92 9.92 0 0 0-3.5-1.65l-.59-.16-1.9-.21c-1.38-.12-2.95-.28-3.47-.36a11.75 11.75 0 0 0-2.68-.33 9.29 9.29 0 0 0-5.22 1.56 11.5 11.5 0 0 0-3.14 3.21h-.23c-3.92.43-6.14 3.33-8.62 7.08L70 17l-.09.18c-.54.85-2.72 4.06-4.62 6.81l-3 3.51-1.23 1.53a11 11 0 0 0-2.62 5.66 67.07 67.07 0 0 0-.25 6.72c0 .5 0 2 1.42 6.28L62 54.26l.73 1.74.13.3c.12.26.3.66.55 1.12h-.85a47.16 47.16 0 0 0-20.69 5.17c-1.7-.58-3.9-1.27-6.7-2.06a39.88 39.88 0 0 0-10.85-1.73 28.83 28.83 0 0 0-11 2.24C6.44 63.76 1.38 70.18.71 77a14.7 14.7 0 0 0 2.6 10c.21.35.43.69.67 1s.43.69.67 1 .43.69.67 1 .43.69.67 1 .43.69.67 1 .43.69.67 1 .43.7.67 1 .43.69.67 1 .43.69.67 1 .43.69.67 1 .43.69.67 1 .43.69.67 1 .43.69.67 1 .43.69.67 1 .43.69.67 1 .43.69.67 1 .43.69.67 1 .43.69.67 1 .43.69.67 1 .43.69.67 1a16.41 16.41 0 0 0 5.29 6.06 19 19 0 0 0 2.5 1.36l.34.5.1.15c-12.35 5.16-23.57 15.12-23.8 25.63a13.6 13.6 0 0 0 2.47 8.3q.31.53.67 1t.67 1c.21.35.43.69.67 1s.43.7.67 1 .43.7.67 1 .43.69.67 1 .43.69.67 1 .43.7.67 1 .43.69.67 1 .43.7.67 1 .43.69.67 1 .43.7.67 1 .43.69.67 1 .43.7.67 1 .43.69.67 1 .43.7.67 1 .43.69.67 1 .43.69.67 1 .43.7.67 1 .43.69.67 1a17.28 17.28 0 0 0 9.83 8 23.56 23.56 0 0 0 7.34 1.14c6.78 0 14.18-2.6 22-7.72a65.12 65.12 0 0 0 13.91-12.12c1-1.24 1.93-2.44 2.79-3.62l.74.06 5 .6c2.12.33 4.24.81 6 1.24l5.13 1.22c11.79 2.83 22 5.28 32.12 5.28a53.81 53.81 0 0 0 8.4-.63c15.2-2.38 20.45-11.22 22.15-18.38a15.15 15.15 0 0 0 13-8.78l.22.31c.21.35.43.69.66 1s.44.7.67 1 .43.69.66 1 .43.69.67 1 .43.7.66 1 .44.7.67 1 .43.69.67 1 .43.7.67 1 .43.69.66 1 .44.7.67 1 .43.7.67 1 .43.69.66 1 .44.7.67 1 .43.69.66 1a18.4 18.4 0 0 0 10.62 8.27 19.37 19.37 0 0 0 5.49.82c10.08 0 16.42-8.18 18.06-13.33a12 12 0 0 0 .58-3.43 10.69 10.69 0 0 0 3.93.76 14.45 14.45 0 0 0 7.62-2.19 12.08 12.08 0 0 0 7.17 2.37 11.67 11.67 0 0 0 4.28-.81 23.49 23.49 0 0 0 3-1.44 11.91 11.91 0 0 0 6.89 2.18 12.75 12.75 0 0 0 6.69-1.93c.76-.47 1.57-1 2.57-1.71a12.71 12.71 0 0 0 1.5 1.14 16.37 16.37 0 0 0 9 2.73 17.78 17.78 0 0 0 9-2.57q.73-.43 1.44-.95a15.19 15.19 0 0 0 10.26 3.69c7.5 0 15.77-4.81 17.07-14q.11-.77.16-1.54a18.84 18.84 0 0 0 3.07-2.85 15.37 15.37 0 0 0 3.61-13.13" transform="translate(-.64)"/><path class="cls-3" d="M159.28 63.59c-9.47 3.14-12.27 13.28-8.47 17.79 6.23 7.39 16 3.51 21.34-4.82 2.1-3.28 3.4-5.7 4.69-7.79.75 0 1.71.07 2.3.15a257 257 0 0 0-11.48 29.73c-4.95 16-2.44 27.95 6.22 30.51s13.3-5.55 13.88-7.38c.67-2.11-.2-3.3-2.29-2.38-2.29 1-11-.12-11.1-11.35s3.91-23.74 7.44-32.46c.9-2.23 1.75-4.13 2.51-5.77 2.26.35 4.52.85 6.76 1.37 16.46 3.88 30 7.73 42.65 5.76 8.07-1.26 15.52-5.15 16.25-15.76.28-4.08-2.32-3.66-3.78-1.83-2.54 3.17-13.11 7.44-34.48 6.24-8.54-.48-16.89-2.11-23.65-3a7 7 0 0 0 .75-2.25c-.24-1.22-3.11-1.65-4.21-.79a12.71 12.71 0 0 0-2 2.62c-10.85-.94-16.5-.89-23.31 1.38m9.47 10.67c-3.22 3.12-12.07 7.18-10.41 1.31.75-2.64 4.2-4.38 6.21-5.24 2.53-1.08 6-1.34 9.4-1.6a40.33 40.33 0 0 1-5.2 5.52" transform="translate(-.64)"/><path class="cls-3" d="M196.07 90.52c1.21-3.47-.55-6.62-3.66-4.93s-4.34 2.43-6.68 3.73-3.37 2.27-2.74 3.39 3.39.85 3.39.85-4.53 11.56-4.71 15.54 3.59 6.36 7.69 3.57a12.13 12.13 0 0 0 4.42-5c.47-1-.06-1.43-1.3-.78-.88.46-1.92-.24-1.18-2.34.58-1.67 3.83-11.33 4.79-14.06m-3.34-13.92c-2.83 1.46-4.38 4.07-3.48 5.82s3.93 2 6.76.53 4.38-4.07 3.48-5.82-3.93-2-6.76-.53M282 87.82a5.22 5.22 0 0 0-3.81-.42.38.38 0 0 0-.21.67 4.62 4.62 0 0 1 1.32 5 9.33 9.33 0 0 1-3.46 4.3 63 63 0 0 0-5-5.39 11.8 11.8 0 0 0 .65-1.08c2-3.65-.15-7.17-4.44-5.78-3.61 1.17-5.27 5.8-3 9.94.28.51.58 1 .89 1.48a28.61 28.61 0 0 1-3.1 3.42c-7.82 7.43-12.3 6.59-13.06 3.59a6 6 0 0 1-.24-1.76c4.47-3.19 12.21-8.09 12.4-12.81.26-6.25-10.26-4.23-15.38 1.5-6.22 7-5.54 13.63-5.54 13.63a11.89 11.89 0 0 1-2.79 2c-1.28.55-2.84.49-2-2.87 1-3.91 2.27-6.2 3.23-9.4 1.59-5.25-1.39-10.25-6.64-8.23-4.82 1.85-8.17 7.13-8.17 7.13s1.78-5.48-1-7.07-6.7.36-9.39 2.8-3.3 2.93-3.3 2.93 1.16-3.11 1-4.58-1.78-2.58-3.86-1.21c-1.83 1.2-5.55 3.84-7.3 4.89-1.29.78-2 2.56-.56 2.93a3.66 3.66 0 0 0 2.32-.06s-3.65 10.49-4.88 14 .73 6.2 3 6.2 4-1.18 5.86-2.74c2.38-2 3.42-4.61 2.14-4.19s-2.62.31-1.65-2.5 2.2-6.9 4.64-10.13 7.37-5.8 6-1.28-4.82 11.66-6 16.23c-.9 3.53 2.65 5.55 5.25 4.53a18.53 18.53 0 0 0 6.47-4.53c1.31-1.2 1.22-2.32-.18-1.89s-2.2-.92-.67-4.94S224 94 228 91.58c2.29-1.39 3.66-.55 2.07 3.42-.61 1.53-1.85 5-2.68 7.38-1.89 5.49-2.38 6.9-2.2 8.91.17 1.86 3.23 3.48 6.1 1.71 1.72-1.06 4.2-2.9 9.08-6.28.33 1.44 1.29 4.48 3.35 5.81a8.94 8.94 0 0 0 9.82 0c4.11-2.43 9.05-9.29 12.75-14.57.61.81 1.44 2.47 2 3.22-4.55 1.68-7.67 6.13-4.72 10.57s13.89 3 15-4.85a11.63 11.63 0 0 0-.27-4.69 15.24 15.24 0 0 0 5.29-3.69c3-3.52 2.87-8.53-1.56-10.69m-31.94 6.39c1.86-2.55 3.66-1.89 3.36-.3s-4.7 4.94-4.7 4.94a9.57 9.57 0 0 1 1.34-4.64m20.68 12.29c0 3.06-3.61 4.93-4.92 3.52s.23-4.42 3.91-5.17l.65-.14a5.23 5.23 0 0 1 .36 1.79m-161.72 1.62c4.53-5.52 4.26-11.67 3.93-14.86a10.41 10.41 0 0 0-1.6-4.41 5.54 5.54 0 0 0 .88-1.26c1.57-3.19 0-4.36-.59-3.35a4.57 4.57 0 0 1-2.6 1.85 9.32 9.32 0 0 0-7-2c-6.89.6-5.83 7.78-1.64 8.32a12.16 12.16 0 0 0 4-.23 10.29 10.29 0 0 1 .88 4.3c-.13 3.63-1.82 5.94-4.71 6.88-3.52 1.15-8-3.18-2.39-9.74.86-1 .18-2-.87-1.54-2.1.94-10 9.15-5.39 17.68 3.54 6.53 12.33 4.12 17-1.63M76.91 92.6a12.26 12.26 0 0 0 4-.23 10.14 10.14 0 0 1 .88 4.27c-.13 3.6-1.82 5.89-4.71 6.82-3.52 1.14-8-3.15-2.39-9.66.86-1 .18-2-.87-1.53-2.1.93-10 9.07-5.39 17.53 3.54 6.48 12.32 4.09 17-1.62 4.53-5.48 4.26-11.57 3.93-14.73a10.27 10.27 0 0 0-1.6-4.37 5.51 5.51 0 0 0 .88-1.25c1.57-3.16 0-4.32-.59-3.32a4.56 4.56 0 0 1-2.6 1.83 9.38 9.38 0 0 0-7-2c-6.9.6-5.83 7.71-1.64 8.25m45.37 20.49c5.95-.31 9.48-5.12 9.48-5.12s.35 4.64 3.94 6.16c3.89 1.65 8.07-.89 9.31-5.1s-.56-4.71-1.09-4.22-1.58 2.11-3.13 2.37c-2.89.49-4.95-2.74-2.57-7.72 13.31-27.87 5.68-37.86-1.22-39.27-7.58-1.54-12.4 2.25-12.78 5.16-.26 2 .31 2.55 1.3 2.35.74-.15 1-.77 3.12-1.16 4.7-.86 10.24 5.55 9.6 13.91A43.54 43.54 0 0 1 133 98.5c-3.39 6.53-11.47 4-8.14-2.51 2.14-4.15 7-4.69 9.58-4.66 2.09 0-.72-3.54-5.33-3-6.09.74-11.34 5.21-13.75 11.53-2.84 7.44.93 13.5 6.88 13.2" transform="translate(-.64)"/><path class="cls-3" d="M64 118.35c-1.92-.13-3.73-.24-5.63-.28a75.5 75.5 0 0 0 3.26-13.81 28.56 28.56 0 0 0 6-10.49c2.93-8.91-8.93-8.41-10.25 1.71a54.93 54.93 0 0 0-.12 7.56s-7.81 3.78-13.79.37S38.62 91.06 42 85.6c4-6.59 7.32-8.54 7.32-8.54s11.1 2.56 18.91-.12c6.27-2.18 10.58-9.16-1.23-11.35-6.6-1.23-16.16.48-24.47 5.55A82.68 82.68 0 0 0 33 68c-7-2-11.35-2-16.84.24-6.74 2.7-11.35 11.84-4 16.59 7.93 5.16 16.35-2.44 16.23-6.34 0-1.34-1.27-.8-2.2 0-1.83 1.59-7.81 1.34-8.05-2.81C17.86 70.6 24.75 69 30 70.59a69.85 69.85 0 0 1 8.51 3.33 34.53 34.53 0 0 0-11.32 15.83c-5.74 16.59 7.93 25.38 17.69 23.43a32.8 32.8 0 0 0 11.88-4.76 52.34 52.34 0 0 1-1.25 5.72c-.16.66-.92 2.63-1.41 3.8a80.3 80.3 0 0 0-21 2.53C14.71 125.59 0 143 15.24 147.95c12.69 4.15 29.7-10 34.77-16.23a64.41 64.41 0 0 0 4.81-6.66c1.79 0 3.66.09 5.57.25l5.31.64c2.26.35 4.52.85 6.76 1.37 16.46 3.88 30 7.73 42.65 5.76 8.07-1.26 15.52-5.15 16.25-15.76.28-4.08-2.32-3.66-3.78-1.83-2.53 3.17-13.11 7.44-34.48 6.24-8.54-.48-16.89-2.11-23.64-3zm-21.43 14.92c-7.2 5.74-18.33 9-14.92 2.67s11.4-8.16 13.79-9a37.75 37.75 0 0 1 9-1.73c-2 3.25-4.85 5.65-7.87 8.06M123.6 37c0-2.82-1.88-5.08-2.73-6.46s-4-5.45-5.17-7.87a47.37 47.37 0 0 1-1.82-4.67 26.56 26.56 0 0 0-1.73-3.28 22.63 22.63 0 0 1-1.7-3.34c-.24-.71-.55-1.71-.74-2.38s-.52-1.28-1.33-1.19c-1.33.15-1.18 2-1.62 3.71s-.74 5.87-1.55 7.06c0 0-1.26 1.57-1.45 1.77-.42.46-1.35.23-1.72.11l-6.44-2.1a3.7 3.7 0 0 1-1.52-.54v-.1a2.12 2.12 0 0 1 .24-1.26c1.32-2 .85-2.49.7-2.64a2.15 2.15 0 0 0-1-.44L93 13.26s-3.61-.3-4.48-.51a2.46 2.46 0 0 0-1.85.07 6.08 6.08 0 0 0-2 3.13l-.15.41a3.86 3.86 0 0 1-2.1 2.15 2.7 2.7 0 0 1-2.16-1 .6.6 0 0 0-.53-.17c-.6.07-3 3.63-3 3.63-.39.75-5.24 7.77-5.24 7.77l-1.19 1.42-2 2.4L67.19 34a3.63 3.63 0 0 0-.93 1.71c-.21 1.62-.19 5.73-.19 5.73a20.27 20.27 0 0 0 1 3.79L68.49 49l.93 2.59.59 1.5a2.86 2.86 0 0 0 1.05 1.43c.89.54 2.25.67 2.89-.06l2.93-3.42a11.28 11.28 0 0 1 2.38-1.9 18.59 18.59 0 0 1 5-2.05s5-.72 5.78-.72a14.22 14.22 0 0 1 4.95.93 7.34 7.34 0 0 1 2.3 1.54s.93.74 1.48.37c.37-.24.66-1.27.66-1.27l.11-.8a3.11 3.11 0 0 1 .23-1.12c.14-.21.42-.37.59-.26a3.33 3.33 0 0 1 1.33 1.36 17.86 17.86 0 0 1 .87 2.28 13.9 13.9 0 0 0 1 2.5l1.44 2.24a7.72 7.72 0 0 0 2.83 2.11 1.85 1.85 0 0 0 1.71-.15c.42-.3 1.31-1.62 1.58-1.82a1.14 1.14 0 0 1 1.43 0 10 10 0 0 1 .85 1.27 1.81 1.81 0 0 0 1.36.89c.54 0 .82-.44 1-.76l1-1.64 1-2.08c.41-.92 5.28-8.22 5.28-8.22l.47-1.1a26.38 26.38 0 0 0 0-5.66" transform="translate(-.64)"/><path class="cls-6" d="M112 59.75c1.44-.13 2.71-.36 3.07 0a2.69 2.69 0 0 1 .36 2.09c-.18.64-.9 2-1.08 2.45s-.19.81-.36 1c-.43.47-1.09.27-1.54.72a1.52 1.52 0 0 1-2.08-.46c-.54-.73-1-2.91-1.44-3.63a2.39 2.39 0 0 1-.24-2.3c.36-.46 1.54-1 1.81-.36s.33.58 1.5.48" transform="translate(-.64)"/><path class="cls-5" d="M79.72 34.86h3.6l-1.75-5.1zm.28-8.52h3.13l5.19 13.9h-3.16l-1.05-3.1h-5.2l-1.09 3.1h-3.09zm16.76 8.89c0-1.6-.64-3.25-2.41-3.25S92 33.6 92 35.23s.62 3.19 2.41 3.19 2.4-1.56 2.4-3.19m-7.47-5.06h2.63v1.29a3.34 3.34 0 0 1 3-1.56c3.15 0 4.57 2.55 4.57 5.41 0 2.69-1.48 5.2-4.42 5.2a3.57 3.57 0 0 1-3-1.52v4.79h-2.83zm11.18 0h2.76v10.06h-2.76zm2.76-1.56h-2.76v-2.27h2.76zm7.72 6.7a5.48 5.48 0 0 1-2.29.58c-.86.18-1.64.47-1.64 1.48s.8 1.28 1.69 1.28a2.05 2.05 0 0 0 2.24-2.31zm-6.38-2c.15-2.59 2.47-3.37 4.73-3.37 2 0 4.42.45 4.42 2.86V38a5.16 5.16 0 0 0 .35 2.24h-2.8a4.21 4.21 0 0 1-.19-1 4.63 4.63 0 0 1-3.39 1.24c-1.91 0-3.42-1-3.42-3 0-2.28 1.71-2.82 3.42-3.05s3.27-.2 3.27-1.32-.82-1.36-1.79-1.36-1.73.43-1.83 1.52z" transform="translate(-.64)"/><path class="cls-3" d="M205.71 122.42v1.51h-2v7.43H202v-7.43h-1.99v-1.51h5.7z"/><path class="cls-3" d="M216.49 125.29c0-2.2 1.16-3 2.82-3s2.82.79 2.82 3v3.19c0 2.2-1.16 3-2.82 3s-2.82-.79-2.82-3zm1.71 3.41c0 1 .43 1.26 1.11 1.26s1.11-.27 1.11-1.26v-3.64c0-1-.43-1.26-1.11-1.26s-1.11.27-1.11 1.26zm16.41-6.28v6.25c0 .86.37 1.3 1.2 1.3s1.21-.44 1.21-1.3v-6.25h1.71v6.26c0 2-1.16 2.8-2.92 2.8s-2.91-.83-2.91-2.8v-6.26zm19.04 8.94l-1.48-3.64h-.82v3.64h-1.71v-8.94h2.47c2.06 0 3 1 3 2.67a2.16 2.16 0 0 1-1.35 2.28l1.68 4zm-2.3-5.05h.88a1.24 1.24 0 0 0 0-2.48h-.88z" transform="translate(-.64)"/><path class="cls-3" d="M252.53 73.26v5.45h-.67v-5.45h-1.8v-.57h4.27v.57h-1.8z"/><path class="cls-7" d="M252.53 73.26v5.45h-.67v-5.45h-1.8v-.57h4.27v.57h-1.8z"/><path class="cls-3" d="M259.96 78.71v-5.5h-.03l-1.68 5.5h-.52l-1.69-5.5h-.03v5.5h-.6v-6.02h1.04l1.53 4.87h.02l1.51-4.87h1.05v6.02h-.6z"/><path class="cls-7" d="M259.96 78.71v-5.5h-.03l-1.68 5.5h-.52l-1.69-5.5h-.03v5.5h-.6v-6.02h1.04l1.53 4.87h.02l1.51-4.87h1.05v6.02h-.6z"/></g></g></g></svg>